<svg xmlns="http://www.w3.org/2000/svg" width="800" height="448" viewBox="0 0 600 336"><path d="M15 137.9c0 1.6-.3 3.6-.6 4.5-.5 1.4.6 1.6 8.1 1.6h8.7l-.7 4.2c-.8 5.1-4.3 23.4-5 26.5-.5 2.2-.3 2.3 5.9 2.3h6.5l1-5.3c1.7-8.4 5.1-26.8 5.1-27.3 0-.2 4.4-.4 9.9-.4h9.8l.7-3.1c1.2-6.3 2.8-5.9-24.4-5.9H15zm54.5.3c-.4 1.8-2.1 11.3-3.9 21.1l-3.2 17.8 6.5-.3 6.6-.3 1-6.5 1-6.5 5.1-.3c5.2-.3 5.2-.3 12.8 6.8l7.6 7h7c8.9 0 9-1.1.9-8.2l-6.1-5.3 4.3-.7c8.1-1.4 11.6-5.7 12.6-15.4.7-6.3-.6-9.6-4.4-11.3-1.5-.7-10.5-1.1-24.8-1.1H70.1zm38.5 7.3c1.2 1.5.8 4.7-1 7.5-1.4 2.2-27.6 2.2-27.3 0 .1-.8.4-3.2.8-5.3l.6-3.7h12.8c10.2 0 13.1.3 14.1 1.5m26.3-9c-1.7.7-3.9 2.8-4.8 4.5-1.3 2.5-7.5 31.5-7.5 35.2 0 .5 2.9.8 6.4.8h6.4l.7-4.3c.3-2.3.8-5.4 1.1-7l.6-2.7h14.9c8.2 0 14.9.3 14.9.7-.1.5-.7 3.6-1.4 7.1l-1.4 6.3 6.6-.3 6.7-.3.6-4c.4-2.2 1.7-9.4 2.8-15.9 2.4-13.4 1.9-17.2-2.4-20-3.3-2.2-39.3-2.3-44.2-.1m34.6 8.9c.9 1.1.9 2.5.1 5.5l-1.1 4.1h-29.2l.6-4.2c.3-2.3 1.4-4.8 2.3-5.5 2.6-1.9 25.7-1.8 27.3.1m18.2 7.8c-1.8 10.1-3.5 19.5-3.8 21l-.5 2.8h13l1.4-7.8c1.9-10.9 3.4-10.9 16.2-.2l9.7 8.1 8.7-.3 8.7-.3-11.7-9.8c-6.5-5.4-11.8-10.1-11.8-10.5s6.6-5.2 14.7-10.7l14.8-10-8.8-.3-8.9-.3-11.4 8.1c-12.5 8.8-13.7 9.5-15.8 8.7-1.2-.5-1.2-1.6 0-7.9.8-4 1.4-7.6 1.4-8.1 0-.4-2.8-.7-6.3-.7h-6.3zm66.3-16.6c-4.3 2.1-6.2 6-8.5 17.4-2.7 14.4-2.6 17.2 1.2 20.4l3.1 2.6h43.6l.6-3.1c1.2-6.2 2.1-5.9-16.7-5.9-22 0-21.5.3-19.6-11.1 2.1-13 1.8-12.9 23.9-12.9 14.6 0 18-.3 18-1.4 0-.7.3-2.8.6-4.5l.7-3.1h-21.9c-17.5 0-22.5.4-25 1.6m47.3 18.7c-2 11.1-3.7 20.6-3.7 21s2.9.7 6.4.7h6.4l1.1-6.3c.6-3.5 1.1-7.1 1.1-8 0-1.5 1.6-1.7 14.1-1.7 12.9 0 14 .1 13.5 1.7-.4 1.6-2.6 13.1-2.6 14 0 .2 2.9.3 6.5.3s6.5-.4 6.5-.8 1.6-9.7 3.5-20.5 3.5-19.9 3.5-20.2-2.9-.5-6.4-.5h-6.4l-.7 3.7c-.3 2.1-1.1 5.9-1.7 8.5l-1 4.8h-13.4c-13.4 0-13.4 0-13-2.3 1.4-6.4 2.6-12.9 2.6-13.7 0-.6-2.8-1-6.3-1h-6.4zm67.6-18.8c-1.7.7-3.9 2.5-4.8 3.9-1.5 2.3-7.4 30-7.5 34.8 0 1.5 1 1.8 6.5 1.8 5.8 0 6.5-.2 6.5-2 0-1 .5-4.2 1.1-7l1.1-5h30.1l-.6 4.5c-.4 2.5-.9 5.6-1.3 7-.6 2.5-.6 2.5 6 2.5 3.6 0 6.6-.1 6.6-.3 0-.1 1.1-6.3 2.5-13.7 5.1-27.5 4.6-28-24.2-28-13.7.1-19.7.5-22 1.5m34.1 8.1c1.8.7 2.1 4 .6 7.8l-1 2.6h-29v-3.5c0-6.4 2.2-7.5 15.9-7.5 6.6 0 12.6.3 13.5.6m22.6-8.8c0 .5-1.6 9.4-3.5 19.8s-3.5 19.5-3.5 20.1c0 .9 1.9 1.3 6.4 1.3 7.1 0 6.7.4 8.1-9.3l.7-4.7h5.6c5.4 0 5.6.1 13.3 7l7.7 7h16.6l-7.5-7c-6.3-5.9-7-6.9-5.1-7 3.9 0 9.2-3.1 10.8-6.1 2.4-4.7 3.5-12.4 2.3-15.9-2-5.5-4.3-6-29.4-6-12.4 0-22.5.4-22.5.8m38.9 9.6c1.6 1.9.4 6.3-2.2 8.1-1.6 1.1-5.2 1.5-14.5 1.5h-12.4l.7-4.8c.4-2.6.9-5 1.2-5.5.2-.4 6.2-.7 13.2-.7 9.8 0 13.1.3 14 1.4m26.5-9.4c-4.6 1.8-7 6.4-9.2 17.6-3 14.7-2.9 16.9.8 20.5l3 3 20-.3 20-.3 3-3c2.2-2.3 3.3-4.8 4.5-10.3C535 151 536 152 521 152h-13l-.6 2.7c-.3 1.6-.7 3.4-1 4-.2 1 1.6 1.3 7.2 1.3h7.4l-.6 2.7c-1.1 4.7-2.8 5.3-15 5.3-14.3 0-14.2 0-12.1-11.8 2.3-12.5 1.8-12.2 23.8-12.2 13.5 0 18.1-.3 18.3-1.3.3-.6.7-2.7 1-4.5l.6-3.2-22.3.1c-12.2 0-23.1.4-24.3.9m53.1.2c-.6 2-7.5 38.1-7.5 39.5 0 1 5.7 1.3 25 1.3h25l.5-2.8c1.5-6.8 3.2-6.2-17.1-6.2H551v-7h17.4c9.6 0 17.7-.3 18-.8.2-.4.7-2.4 1.1-4.4l.7-3.8-17.3-.2-17.4-.3.4-3c.1-1.7.5-3.3.8-3.8.2-.4 8.4-.7 18.2-.7h17.9l.6-3.1c1.2-6.3 2.7-5.9-23.4-5.9-18.4 0-24.2.3-24.5 1.2M357 185.1c-97.6.5-204.3 1.2-237 1.6l-59.5.8 62 .6c79.5.9 227.8 2.7 310.9 3.9l64.9 1 27.6-4c15.2-2.1 29-4.1 30.6-4.3 3.8-.5 12.3-.5-199.5.4"/></svg>